<svg width="15" height="15" viewBox="0 0 15 15" fill="none" xmlns="http://www.w3.org/2000/svg">
<path fill-rule="evenodd" clip-rule="evenodd" d="M7.07767 0.223047C7.31116 -0.00664055 7.68571 -0.00664055 7.9192 0.223047L14.6692 6.86306C14.9054 7.09544 14.9086 7.47533 14.6762 7.71156C14.4438 7.94779 14.0639 7.95091 13.8277 7.71853L12.9984 6.90281V12.5008C12.9984 12.7769 12.7746 13.0008 12.4984 13.0008H2.49844C2.2223 13.0008 1.99844 12.7769 1.99844 12.5008V6.90281L1.1692 7.71853C0.932971 7.95091 0.553085 7.94779 0.320703 7.71156C0.088321 7.47533 0.0914414 7.09544 0.327673 6.86306L7.07767 0.223047ZM7.49844 1.49242L11.9984 5.9191V12.0008H9.99844V8.50079C9.99844 8.22465 9.77458 8.00079 9.49844 8.00079H6.49844C6.2223 8.00079 5.99844 8.22465 5.99844 8.50079V12.0008H2.99844V5.9191L7.49844 1.49242ZM6.99844 12.0008H8.99844V9.00079H6.99844V12.0008Z" fill="#FFE229"/>
</svg>
