<svg width="15" height="15" viewBox="0 0 15 15" fill="none" xmlns="http://www.w3.org/2000/svg">
<path fill-rule="evenodd" clip-rule="evenodd" d="M7.94721 0.164166C7.66569 0.0234026 7.33431 0.023403 7.05279 0.164167L0.552786 3.41417C0.214002 3.58356 0 3.92982 0 4.30859V11.9996C0 12.5519 0.447715 12.9996 1 12.9996H14C14.5523 12.9996 15 12.5519 15 11.9996V4.30859C15 3.92982 14.786 3.58356 14.4472 3.41417L7.94721 0.164166ZM13.5689 4.09307L7.5 1.05859L1.43105 4.09307L7.5 7.29094L13.5689 4.09307ZM1 4.88323V11.9996H14V4.88323L7.70977 8.1977C7.57848 8.26688 7.42152 8.26688 7.29023 8.1977L1 4.88323Z" fill="#FFE229"/>
</svg>
