<svg width="15" height="15" viewBox="0 0 15 15" fill="none" xmlns="http://www.w3.org/2000/svg">
<path d="M3.25659 3.11684C3.67649 3.45796 3.83401 3.43193 4.62247 3.37933L12.0559 2.93299C12.2135 2.93299 12.0824 2.77571 12.0298 2.74957L10.7953 1.85711C10.5588 1.67347 10.2436 1.46315 9.63961 1.51576L2.44186 2.04074C2.17937 2.06677 2.12693 2.19801 2.23148 2.30322L3.25659 3.11684ZM3.70288 4.84917V12.6704C3.70288 13.0907 3.91293 13.248 4.38571 13.222L12.555 12.7493C13.028 12.7233 13.0807 12.4341 13.0807 12.0927V4.32397C13.0807 3.98306 12.9495 3.79921 12.66 3.82545L4.123 4.32397C3.80796 4.35044 3.70288 4.50803 3.70288 4.84917ZM11.7676 5.26872C11.8199 5.50518 11.7676 5.74142 11.5307 5.76799L11.1371 5.84641V11.6205C10.7953 11.8042 10.4802 11.9092 10.2176 11.9092C9.79713 11.9092 9.69183 11.7779 9.3769 11.3844L6.80223 7.34249V11.2532L7.61694 11.437C7.61694 11.437 7.61694 11.9092 6.95964 11.9092L5.14757 12.0143C5.09492 11.9092 5.14757 11.647 5.33137 11.5944L5.80424 11.4634V6.29276L5.14768 6.24015C5.09503 6.00369 5.22617 5.66278 5.59418 5.63631L7.53813 5.50528L10.2176 9.5998V5.97765L9.53442 5.89924C9.48198 5.61018 9.69183 5.40028 9.95454 5.37425L11.7676 5.26872ZM1.83752 1.33212L9.32435 0.780787C10.2437 0.701932 10.4803 0.754753 11.0581 1.17452L13.448 2.85424C13.8424 3.14309 13.9738 3.22173 13.9738 3.53661V12.7493C13.9738 13.3266 13.7635 13.6681 13.0281 13.7203L4.3337 14.2454C3.78169 14.2717 3.51897 14.193 3.22989 13.8253L1.46994 11.5419C1.15458 11.1216 1.02344 10.8071 1.02344 10.4392V2.25041C1.02344 1.77825 1.23382 1.38441 1.83752 1.33212Z" fill="#FFE229"/>
</svg>
